ffmpeg started on 2016-12-08 at 05:05:30
Report written to "Output/x264/results/ffmpeg/crowd_run_2160p50slower10000k.log"
Command line:
Tools/ffmpeg/ffmpeg -benchmark -y -i Input/y4m/crowd_run_2160p50.y4m -c:v libx264 -preset slower -b:v 10000k -an Output/x264/encoded/crowd_run_2160p50slower10000k.mkv
ffmpeg version N-82227-gdb23fde Copyright (c) 2000-2016 the FFmpeg developers
  built with gcc 5.4.0 (Ubuntu 5.4.0-6ubuntu1~16.04.2) 20160609
  configuration: --prefix=/home/jaroslav/ffmpeg_build --pkg-config-flags=--static --extra-cflags=-I/home/jaroslav/ffmpeg_build/include --extra-ldflags=-L/home/jaroslav/ffmpeg_build/lib --bindir=/home/jaroslav/bin --enable-gpl --enable-libass --enable-libfdk-aac --enable-libfreetype --enable-libmp3lame --enable-libopus --enable-libtheora --enable-libvorbis --enable-libvpx --enable-libx264 --enable-libx265 --enable-nvenc --enable-libmfx --enable-libxvid --enable-libgsm --enable-libopencore-amrnb --enable-version3 --enable-nonfree
  libavutil      55. 35.100 / 55. 35.100
  libavcodec     57. 66.101 / 57. 66.101
  libavformat    57. 57.100 / 57. 57.100
  libavdevice    57.  2.100 / 57.  2.100
  libavfilter     6. 66.100 /  6. 66.100
  libswscale      4.  3.100 /  4.  3.100
  libswresample   2.  4.100 /  2.  4.100
  libpostproc    54.  2.100 / 54.  2.100
Input #0, yuv4mpegpipe, from 'Input/y4m/crowd_run_2160p50.y4m':
  Duration: 00:00:10.00, start: 0.000000, bitrate: 4976642 kb/s
    Stream #0:0: Video: rawvideo (I420 / 0x30323449), yuv420p(progressive), 3840x2160, SAR 1:1 DAR 16:9, 50 fps, 50 tbr, 50 tbn, 50 tbc
[libx264 @ 0x31791c0] using SAR=1/1
[libx264 @ 0x31791c0] DPB size (8 frames, 259200 mbs) > level limit (5 frames, 184320 mbs)
[libx264 @ 0x31791c0] using cpu capabilities: MMX2 SSE2Fast SSSE3 SSE4.2 AVX FMA3 AVX2 LZCNT BMI2
[libx264 @ 0x31791c0] profile High, level 5.2
[libx264 @ 0x31791c0] 264 - core 148 - H.264/MPEG-4 AVC codec - Copyleft 2003-2016 - http://www.videolan.org/x264.html - options: cabac=1 ref=8 deblock=1:0:0 analyse=0x3:0x133 me=umh subme=9 psy=1 psy_rd=1.00:0.00 mixed_ref=1 me_range=16 chroma_me=1 trellis=2 8x8dct=1 cqm=0 deadzone=21,11 fast_pskip=1 chroma_qp_offset=-2 threads=6 lookahead_threads=1 sliced_threads=0 nr=0 decimate=1 interlaced=0 bluray_compat=0 constrained_intra=0 bframes=3 b_pyramid=2 b_adapt=2 b_bias=0 direct=3 weightb=1 open_gop=0 weightp=2 keyint=250 keyint_min=25 scenecut=40 intra_refresh=0 rc_lookahead=60 rc=abr mbtree=1 bitrate=10000 ratetol=1.0 qcomp=0.60 qpmin=0 qpmax=69 qpstep=4 ip_ratio=1.40 aq=1:1.00
Output #0, matroska, to 'Output/x264/encoded/crowd_run_2160p50slower10000k.mkv':
  Metadata:
    encoder         : Lavf57.57.100
    Stream #0:0: Video: h264 (libx264) (H264 / 0x34363248), yuv420p, 3840x2160 [SAR 1:1 DAR 16:9], q=-1--1, 10000 kb/s, 50 fps, 1k tbn, 50 tbc
    Metadata:
      encoder         : Lavc57.66.101 libx264
    Side data:
      cpb: bitrate max/min/avg: 0/0/10000000 buffer size: 0 vbv_delay: -1
Stream mapping:
  Stream #0:0 -> #0:0 (rawvideo (native) -> h264 (libx264))
Press [q] to stop, [?] for help
frame=   19 fps=0.0 q=0.0 size=       0kB time=00:00:00.00 bitrate=N/A speed=   0x    frame=   27 fps= 25 q=0.0 size=       0kB time=00:00:00.00 bitrate=N/A speed=   0x    frame=   39 fps= 25 q=0.0 size=       0kB time=00:00:00.00 bitrate=N/A speed=   0x    frame=   51 fps= 24 q=0.0 size=       0kB time=00:00:00.00 bitrate=N/A speed=   0x    frame=   55 fps= 20 q=0.0 size=       0kB time=00:00:00.00 bitrate=N/A speed=   0x    frame=   57 fps= 17 q=0.0 size=       0kB time=00:00:00.00 bitrate=N/A speed=   0x    frame=   60 fps= 15 q=0.0 size=       0kB time=00:00:00.00 bitrate=N/A speed=   0x    frame=   65 fps= 13 q=0.0 size=       0kB time=00:00:00.00 bitrate=N/A speed=   0x    frame=   67 fps=9.3 q=0.0 size=       0kB time=00:00:00.00 bitrate=N/A speed=   0x    frame=   71 fps=9.1 q=34.0 size=       1kB time=-00:00:00.03 bitrate=N/A speed=N/A    frame=   72 fps=8.5 q=35.0 size=       1kB time=-00:00:00.01 bitrate=N/A speed=N/A    frame=   74 fps=8.0 q=37.0 size=       1kB time=00:00:00.02 bitrate= 280.4kbits/s speed=0.00226x    frame=   75 fps=7.6 q=40.0 size=       1kB time=00:00:00.04 bitrate= 143.6kbits/s speed=0.00414x    frame=   80 fps=7.6 q=50.0 size=       1kB time=00:00:00.14 bitrate=  41.8kbits/s speed=0.0133x    frame=   81 fps=6.9 q=50.0 size=       1kB time=00:00:00.16 bitrate=  36.6kbits/s speed=0.0137x    frame=   86 fps=6.8 q=50.0 size=       1kB time=00:00:00.26 bitrate=  22.6kbits/s speed=0.0206x    frame=   87 fps=6.4 q=50.0 size=       1kB time=00:00:00.28 bitrate=  21.0kbits/s speed=0.0207x    frame=   90 fps=6.3 q=49.0 size=       1kB time=00:00:00.34 bitrate=  17.3kbits/s speed=0.024x    frame=   93 fps=6.3 q=49.0 size=       1kB time=00:00:00.40 bitrate=  14.7kbits/s speed=0.0273x    frame=   94 fps=6.2 q=49.0 size=       1kB time=00:00:00.42 bitrate=  14.0kbits/s speed=0.0276x    frame=   95 fps=5.9 q=49.0 size=       1kB time=00:00:00.44 bitrate=  13.4kbits/s speed=0.0276x    frame=   99 fps=5.9 q=48.0 size=       1kB time=00:00:00.52 bitrate=  11.3kbits/s speed=0.0311x    frame=  101 fps=5.8 q=48.0 size=       1kB time=00:00:00.56 bitrate=  10.5kbits/s speed=0.0321x    frame=  103 fps=5.6 q=48.0 size=       1kB time=00:00:00.60 bitrate=   9.8kbits/s speed=0.033x    frame=  107 fps=5.6 q=48.0 size=       1kB time=00:00:00.68 bitrate=   8.6kbits/s speed=0.0356x    frame=  109 fps=5.6 q=48.0 size=       1kB time=00:00:00.72 bitrate=   8.2kbits/s speed=0.0367x    frame=  111 fps=5.5 q=48.0 size=       1kB time=00:00:00.76 bitrate=   7.7kbits/s speed=0.0376x    frame=  113 fps=5.3 q=48.0 size=       1kB time=00:00:00.80 bitrate=   7.4kbits/s speed=0.0378x    frame=  115 fps=5.3 q=48.0 size=       1kB time=00:00:00.84 bitrate=   7.0kbits/s speed=0.0387x    frame=  118 fps=5.3 q=47.0 size=       1kB time=00:00:00.90 bitrate=   6.5kbits/s speed=0.0404x    frame=  120 fps=5.2 q=47.0 size=       1kB time=00:00:00.94 bitrate=   6.3kbits/s speed=0.0406x    frame=  122 fps=5.1 q=47.0 size=       1kB time=00:00:00.98 bitrate=   6.0kbits/s speed=0.0412x    frame=  126 fps=5.1 q=47.0 size=       1kB time=00:00:01.06 bitrate=   5.5kbits/s speed=0.0428x    frame=  128 fps=5.0 q=47.0 size=       1kB time=00:00:01.10 bitrate=   5.3kbits/s speed=0.043x    frame=  130 fps=4.9 q=47.0 size=       1kB time=00:00:01.14 bitrate=   5.2kbits/s speed=0.0433x    frame=  133 fps=4.9 q=47.0 size=       1kB time=00:00:01.20 bitrate=   4.9kbits/s speed=0.0447x    frame=  134 fps=4.9 q=47.0 size=       1kB time=00:00:01.22 bitrate=   4.8kbits/s speed=0.0443x    frame=  137 fps=4.9 q=47.0 size=       1kB time=00:00:01.28 bitrate=   4.6kbits/s speed=0.0456x    frame=  138 fps=4.8 q=47.0 size=       1kB time=00:00:01.30 bitrate=   4.5kbits/s speed=0.0449x    frame=  142 fps=4.8 q=47.0 size=       1kB time=00:00:01.38 bitrate=   4.3kbits/s speed=0.0463x    frame=  144 fps=4.7 q=47.0 size=       1kB time=00:00:01.42 bitrate=   4.1kbits/s speed=0.0467x    frame=  146 fps=4.7 q=47.0 size=       1kB time=00:00:01.46 bitrate=   4.0kbits/s speed=0.0469x    frame=  148 fps=4.7 q=47.0 size=       1kB time=00:00:01.50 bitrate=   3.9kbits/s speed=0.0473x    frame=  150 fps=4.6 q=47.0 size=       1kB time=00:00:01.54 bitrate=   3.8kbits/s speed=0.047x    frame=  154 fps=4.6 q=47.0 size=       1kB time=00:00:01.62 bitrate=   3.6kbits/s speed=0.0483x    frame=  156 fps=4.5 q=46.0 size=       1kB time=00:00:01.66 bitrate=   3.5kbits/s speed=0.0484x    frame=  158 fps=4.5 q=46.0 size=       1kB time=00:00:01.70 bitrate=   3.5kbits/s speed=0.0487x    frame=  159 fps=4.5 q=46.0 size=       1kB time=00:00:01.72 bitrate=   3.4kbits/s speed=0.0483x    frame=  161 fps=4.4 q=46.0 size=       1kB time=00:00:01.76 bitrate=   3.3kbits/s speed=0.0486x    frame=  166 fps=4.4 q=46.0 size=       1kB time=00:00:01.86 bitrate=   3.2kbits/s speed=0.0494x    frame=  167 fps=4.4 q=46.0 size=       1kB time=00:00:01.88 bitrate=   3.1kbits/s speed=0.0493x    frame=  170 fps=4.4 q=46.0 size=       1kB time=00:00:01.94 bitrate=   3.0kbits/s speed=0.0497x    frame=  172 fps=4.3 q=46.0 size=       1kB time=00:00:01.98 bitrate=   3.0kbits/s speed=0.0501x    frame=  174 fps=4.3 q=46.0 size=       1kB time=00:00:02.02 bitrate=   2.9kbits/s speed=0.0502x    frame=  177 fps=4.3 q=46.0 size=       1kB time=00:00:02.08 bitrate=   2.8kbits/s speed=0.0509x    frame=  178 fps=4.3 q=46.0 size=       1kB time=00:00:02.10 bitrate=   2.8kbits/s speed=0.0505x    frame=  182 fps=4.3 q=46.0 size=       1kB time=00:00:02.18 bitrate=   2.7kbits/s speed=0.0516x    frame=  183 fps=4.3 q=46.0 size=       1kB time=00:00:02.20 bitrate=   2.7kbits/s speed=0.0513x    frame=  184 fps=4.2 q=46.0 size=       1kB time=00:00:02.22 bitrate=   2.7kbits/s speed=0.0509x    frame=  188 fps=4.2 q=46.0 size=       1kB time=00:00:02.30 bitrate=   2.6kbits/s speed=0.052x    frame=  191 fps=4.2 q=46.0 size=       1kB time=00:00:02.36 bitrate=   2.5kbits/s speed=0.0515x    frame=  193 fps=4.2 q=46.0 size=       1kB time=00:00:02.40 bitrate=   2.5kbits/s speed=0.0518x    frame=  196 fps=4.2 q=46.0 size=       1kB time=00:00:02.46 bitrate=   2.4kbits/s speed=0.0524x    frame=  198 fps=4.1 q=46.0 size=       1kB time=00:00:02.50 bitrate=   2.4kbits/s speed=0.0524x    frame=  200 fps=4.1 q=46.0 size=       1kB time=00:00:02.54 bitrate=   2.3kbits/s speed=0.0525x    frame=  202 fps=4.1 q=46.0 size=       1kB time=00:00:02.58 bitrate=   2.3kbits/s speed=0.0525x    frame=  206 fps=4.1 q=46.0 size=       1kB time=00:00:02.66 bitrate=   2.2kbits/s speed=0.0529x    frame=  208 fps=4.1 q=46.0 size=       1kB time=00:00:02.70 bitrate=   2.2kbits/s speed=0.053x    frame=  210 fps=4.1 q=46.0 size=       1kB time=00:00:02.74 bitrate=   2.1kbits/s speed=0.053x    frame=  212 fps=4.0 q=46.0 size=       1kB time=00:00:02.78 bitrate=   2.1kbits/s speed=0.0531x    frame=  215 fps=4.1 q=46.0 size=       1kB time=00:00:02.84 bitrate=   2.1kbits/s speed=0.0536x    frame=  217 fps=4.0 q=46.0 size=       1kB time=00:00:02.88 bitrate=   2.0kbits/s speed=0.0534x    frame=  220 fps=4.0 q=46.0 size=       1kB time=00:00:02.94 bitrate=   2.0kbits/s speed=0.054x    frame=  221 fps=4.0 q=46.0 size=       1kB time=00:00:02.96 bitrate=   2.0kbits/s speed=0.0537x    frame=  223 fps=4.0 q=46.0 size=       1kB time=00:00:03.00 bitrate=   2.0kbits/s speed=0.0537x    frame=  226 fps=4.0 q=46.0 size=       1kB time=00:00:03.06 bitrate=   1.9kbits/s speed=0.0542x    frame=  228 fps=4.0 q=46.0 size=       1kB time=00:00:03.10 bitrate=   1.9kbits/s speed=0.0538x    frame=  230 fps=4.0 q=46.0 size=       1kB time=00:00:03.14 bitrate=   1.9kbits/s speed=0.054x    frame=  233 fps=4.0 q=46.0 size=       1kB time=00:00:03.20 bitrate=   1.8kbits/s speed=0.0544x    frame=  235 fps=3.9 q=46.0 size=       1kB time=00:00:03.24 bitrate=   1.8kbits/s speed=0.0543x    frame=  237 fps=3.9 q=46.0 size=       1kB time=00:00:03.28 bitrate=   1.8kbits/s speed=0.054x    frame=  241 fps=3.9 q=45.0 size=       1kB time=00:00:03.36 bitrate=   1.8kbits/s speed=0.0547x    frame=  243 fps=3.9 q=45.0 size=       1kB time=00:00:03.40 bitrate=   1.7kbits/s speed=0.0548x    frame=  244 fps=3.9 q=45.0 size=       1kB time=00:00:03.42 bitrate=   1.7kbits/s speed=0.0546x    frame=  246 fps=3.9 q=45.0 size=       1kB time=00:00:03.46 bitrate=   1.7kbits/s speed=0.0545x    frame=  250 fps=3.9 q=45.0 size=       1kB time=00:00:03.54 bitrate=   1.7kbits/s speed=0.0551x    frame=  251 fps=3.8 q=45.0 size=       1kB time=00:00:03.56 bitrate=   1.7kbits/s speed=0.0546x    frame=  253 fps=3.8 q=45.0 size=       1kB time=00:00:03.60 bitrate=   1.6kbits/s speed=0.0548x    frame=  256 fps=3.8 q=45.0 size=       1kB time=00:00:03.66 bitrate=   1.6kbits/s speed=0.055x    frame=  259 fps=3.8 q=45.0 size=       1kB time=00:00:03.72 bitrate=   1.6kbits/s speed=0.0552x    frame=  262 fps=3.8 q=45.0 size=       1kB time=00:00:03.78 bitrate=   1.6kbits/s speed=0.0552x    frame=  264 fps=3.8 q=45.0 size=       1kB time=00:00:03.82 bitrate=   1.5kbits/s speed=0.0551x    frame=  267 fps=3.8 q=45.0 size=       1kB time=00:00:03.88 bitrate=   1.5kbits/s speed=0.0554x    frame=  270 fps=3.8 q=45.0 size=       1kB time=00:00:03.94 bitrate=   1.5kbits/s speed=0.0553x    frame=  272 fps=3.8 q=45.0 size=       1kB time=00:00:03.98 bitrate=   1.5kbits/s speed=0.0554x    frame=  275 fps=3.8 q=45.0 size=    5123kB time=00:00:04.04 bitrate=10386.1kbits/s speed=0.0556x    frame=  277 fps=3.8 q=45.0 size=    5123kB time=00:00:04.08 bitrate=10284.3kbits/s speed=0.0554x    frame=  280 fps=3.8 q=45.0 size=    5123kB time=00:00:04.14 bitrate=10135.3kbits/s speed=0.0557x    frame=  282 fps=3.8 q=45.0 size=    5123kB time=00:00:04.18 bitrate=10038.3kbits/s speed=0.0556x    frame=  285 fps=3.7 q=45.0 size=    5123kB time=00:00:04.24 bitrate=9896.3kbits/s speed=0.0557x    frame=  286 fps=3.7 q=45.0 size=    5123kB time=00:00:04.26 bitrate=9849.8kbits/s speed=0.0555x    frame=  289 fps=3.7 q=45.0 size=    5123kB time=00:00:04.32 bitrate=9713.0kbits/s speed=0.0558x    frame=  291 fps=3.7 q=45.0 size=    5123kB time=00:00:04.36 bitrate=9624.0kbits/s speed=0.0559x    frame=  293 fps=3.7 q=45.0 size=    5123kB time=00:00:04.40 bitrate=9536.5kbits/s speed=0.0557x    frame=  295 fps=3.7 q=45.0 size=    5123kB time=00:00:04.44 bitrate=9450.6kbits/s speed=0.0556x    frame=  300 fps=3.7 q=45.0 size=    5123kB time=00:00:04.54 bitrate=9242.5kbits/s speed=0.0557x    frame=  303 fps=3.7 q=45.0 size=    5123kB time=00:00:04.60 bitrate=9121.9kbits/s speed=0.0561x    frame=  304 fps=3.7 q=45.0 size=    5123kB time=00:00:04.62 bitrate=9082.5kbits/s speed=0.0559x    frame=  307 fps=3.7 q=45.0 size=    5123kB time=00:00:04.68 bitrate=8966.0kbits/s speed=0.0563x    frame=  308 fps=3.7 q=45.0 size=    5123kB time=00:00:04.70 bitrate=8927.9kbits/s speed=0.0559x    frame=  310 fps=3.7 q=45.0 size=    5123kB time=00:00:04.74 bitrate=8852.6kbits/s speed=0.0559x    frame=  313 fps=3.6 q=45.0 size=    5123kB time=00:00:04.80 bitrate=8741.9kbits/s speed=0.0559x    frame=  316 fps=3.7 q=42.0 size=    5123kB time=00:00:04.86 bitrate=8634.0kbits/s speed=0.0562x    frame=  317 fps=3.6 q=46.0 size=    5123kB time=00:00:04.88 bitrate=8598.7kbits/s speed=0.0561x    frame=  319 fps=3.6 q=46.0 size=    5123kB time=00:00:04.92 bitrate=8528.8kbits/s speed=0.0562x    frame=  325 fps=3.7 q=46.0 size=    6224kB time=00:00:05.04 bitrate=10114.3kbits/s speed=0.0572x    frame=  327 fps=3.7 q=46.0 size=    6224kB time=00:00:05.08 bitrate=10034.6kbits/s speed=0.0572x    frame=  329 fps=3.7 q=46.0 size=    6224kB time=00:00:05.12 bitrate=9956.3kbits/s speed=0.0572x    frame=  331 fps=3.7 q=46.0 size=    6224kB time=00:00:05.16 bitrate=9879.1kbits/s speed=0.0572x    frame=  334 fps=3.7 q=46.0 size=    6224kB time=00:00:05.22 bitrate=9765.6kbits/s speed=0.0574x    frame=  337 fps=3.7 q=46.0 size=    6224kB time=00:00:05.28 bitrate=9654.6kbits/s speed=0.0575x    frame=  339 fps=3.7 q=46.0 size=    6224kB time=00:00:05.32 bitrate=9582.0kbits/s speed=0.0574x    frame=  341 fps=3.6 q=46.0 size=    6224kB time=00:00:05.36 bitrate=9510.5kbits/s speed=0.0573x    frame=  344 fps=3.6 q=46.0 size=    6224kB time=00:00:05.42 bitrate=9405.3kbits/s speed=0.0575x    frame=  347 fps=3.6 q=46.0 size=    6224kB time=00:00:05.48 bitrate=9302.3kbits/s speed=0.0575x    frame=  349 fps=3.6 q=46.0 size=    6224kB time=00:00:05.52 bitrate=9234.9kbits/s speed=0.0574x    frame=  352 fps=3.6 q=46.0 size=    6224kB time=00:00:05.58 bitrate=9135.6kbits/s speed=0.0575x    frame=  354 fps=3.6 q=46.0 size=    6224kB time=00:00:05.62 bitrate=9070.6kbits/s speed=0.0576x    frame=  356 fps=3.6 q=46.0 size=    6224kB time=00:00:05.66 bitrate=9006.5kbits/s speed=0.0574x    frame=  358 fps=3.6 q=46.0 size=    6224kB time=00:00:05.70 bitrate=8943.3kbits/s speed=0.0575x    frame=  361 fps=3.6 q=46.0 size=    6224kB time=00:00:05.76 bitrate=8850.2kbits/s speed=0.0576x    frame=  364 fps=3.6 q=46.0 size=    6224kB time=00:00:05.82 bitrate=8759.0kbits/s speed=0.0576x    frame=  365 fps=3.6 q=46.0 size=    6224kB time=00:00:05.84 bitrate=8729.0kbits/s speed=0.0574x    frame=  369 fps=3.6 q=46.0 size=    6224kB time=00:00:05.92 bitrate=8611.0kbits/s speed=0.0577x    frame=  372 fps=3.6 q=46.0 size=    6224kB time=00:00:05.98 bitrate=8524.7kbits/s speed=0.0575x    frame=  375 fps=3.6 q=46.0 size=    6224kB time=00:00:06.04 bitrate=8440.0kbits/s speed=0.0578x    frame=  377 fps=3.6 q=46.0 size=    6224kB time=00:00:06.08 bitrate=8384.5kbits/s speed=0.0579x    frame=  379 fps=3.6 q=46.0 size=    6224kB time=00:00:06.12 bitrate=8329.7kbits/s speed=0.0577x    frame=  380 fps=3.6 q=46.0 size=    6224kB time=00:00:06.14 bitrate=8302.6kbits/s speed=0.0576x    frame=  385 fps=3.6 q=46.0 size=    6224kB time=00:00:06.24 bitrate=8169.5kbits/s speed=0.0578x    frame=  386 fps=3.6 q=46.0 size=    6224kB time=00:00:06.26 bitrate=8143.4kbits/s speed=0.0576x    frame=  390 fps=3.6 q=46.0 size=    6224kB time=00:00:06.34 bitrate=8040.7kbits/s speed=0.0578x    frame=  393 fps=3.5 q=45.0 size=    6224kB time=00:00:06.40 bitrate=7965.3kbits/s speed=0.0578x    frame=  396 fps=3.6 q=45.0 size=    6224kB time=00:00:06.46 bitrate=7891.3kbits/s speed=0.0581x    frame=  398 fps=3.5 q=45.0 size=    6224kB time=00:00:06.50 bitrate=7842.8kbits/s speed=0.0579x    frame=  399 fps=3.5 q=45.0 size=    6224kB time=00:00:06.52 bitrate=7818.7kbits/s speed=0.0578x    frame=  403 fps=3.5 q=45.0 size=    6224kB time=00:00:06.60 bitrate=7724.0kbits/s speed=0.0579x    frame=  406 fps=3.5 q=45.0 size=    6224kB time=00:00:06.66 bitrate=7654.4kbits/s speed=0.0579x    frame=  409 fps=3.5 q=45.0 size=    6224kB time=00:00:06.72 bitrate=7586.1kbits/s speed=0.0581x    frame=  410 fps=3.5 q=45.0 size=    6224kB time=00:00:06.74 bitrate=7563.6kbits/s speed=0.058x    frame=  412 fps=3.5 q=45.0 size=    6224kB time=00:00:06.78 bitrate=7518.9kbits/s speed=0.0579x    frame=  414 fps=3.5 q=45.0 size=    6224kB time=00:00:06.82 bitrate=7474.9kbits/s speed=0.0578x    frame=  416 fps=3.5 q=45.0 size=    6224kB time=00:00:06.86 bitrate=7431.3kbits/s speed=0.0579x    frame=  420 fps=3.5 q=45.0 size=    6224kB time=00:00:06.94 bitrate=7345.6kbits/s speed=0.0582x    frame=  421 fps=3.5 q=45.0 size=    6224kB time=00:00:06.96 bitrate=7324.5kbits/s speed=0.0581x    frame=  423 fps=3.5 q=45.0 size=    6224kB time=00:00:07.00 bitrate=7282.7kbits/s speed=0.058x    frame=  425 fps=3.5 q=45.0 size=    6224kB time=00:00:07.04 bitrate=7241.3kbits/s speed=0.058x    frame=  427 fps=3.5 q=45.0 size=    6224kB time=00:00:07.08 bitrate=7200.4kbits/s speed=0.0581x    frame=  429 fps=3.5 q=45.0 size=    6224kB time=00:00:07.12 bitrate=7159.9kbits/s speed=0.058x    frame=  431 fps=3.5 q=45.0 size=    6224kB time=00:00:07.16 bitrate=7120.0kbits/s speed=0.0581x    frame=  433 fps=3.5 q=45.0 size=    6224kB time=00:00:07.20 bitrate=7080.4kbits/s speed=0.0581x    frame=  435 fps=3.5 q=45.0 size=    6224kB time=00:00:07.24 bitrate=7041.3kbits/s speed=0.0581x    frame=  436 fps=3.5 q=45.0 size=    6224kB time=00:00:07.26 bitrate=7021.9kbits/s speed=0.058x    frame=  439 fps=3.5 q=45.0 size=    6224kB time=00:00:07.32 bitrate=6964.3kbits/s speed=0.0582x    frame=  441 fps=3.5 q=45.0 size=    6224kB time=00:00:07.36 bitrate=6926.5kbits/s speed=0.0583x    frame=  442 fps=3.5 q=45.0 size=    6224kB time=00:00:07.38 bitrate=6907.7kbits/s speed=0.0581x    frame=  444 fps=3.5 q=45.0 size=    6224kB time=00:00:07.42 bitrate=6870.5kbits/s speed=0.0581x    frame=  446 fps=3.5 q=45.0 size=    6224kB time=00:00:07.46 bitrate=6833.7kbits/s speed=0.0582x    frame=  449 fps=3.5 q=45.0 size=    6224kB time=00:00:07.52 bitrate=6779.1kbits/s speed=0.0583x    frame=  450 fps=3.5 q=45.0 size=    6224kB time=00:00:07.54 bitrate=6761.2kbits/s speed=0.0581x    frame=  452 fps=3.5 q=45.0 size=    6224kB time=00:00:07.58 bitrate=6725.5kbits/s speed=0.0581x    frame=  455 fps=3.5 q=45.0 size=    6224kB time=00:00:07.64 bitrate=6672.7kbits/s speed=0.0583x    frame=  457 fps=3.5 q=45.0 size=    6224kB time=00:00:07.68 bitrate=6637.9kbits/s speed=0.0583x    frame=  458 fps=3.5 q=45.0 size=    6224kB time=00:00:07.70 bitrate=6620.7kbits/s speed=0.0581x    frame=  460 fps=3.5 q=45.0 size=    6224kB time=00:00:07.74 bitrate=6586.5kbits/s speed=0.0581x    frame=  463 fps=3.5 q=45.0 size=    6224kB time=00:00:07.80 bitrate=6535.8kbits/s speed=0.0583x    frame=  465 fps=3.5 q=45.0 size=    6224kB time=00:00:07.84 bitrate=6502.5kbits/s speed=0.0583x    frame=  466 fps=3.4 q=45.0 size=    6224kB time=00:00:07.86 bitrate=6485.9kbits/s speed=0.0581x    frame=  468 fps=3.4 q=45.0 size=    6224kB time=00:00:07.90 bitrate=6453.1kbits/s speed=0.0581x    frame=  472 fps=3.5 q=45.0 size=    6224kB time=00:00:07.98 bitrate=6388.4kbits/s speed=0.0584x    frame=  473 fps=3.4 q=45.0 size=    6224kB time=00:00:08.00 bitrate=6372.5kbits/s speed=0.0582x    frame=  474 fps=3.4 q=45.0 size=    6224kB time=00:00:08.02 bitrate=6356.6kbits/s speed=0.0581x    frame=  477 fps=3.4 q=45.0 size=    6224kB time=00:00:08.08 bitrate=6309.4kbits/s speed=0.0582x    frame=  479 fps=3.4 q=45.0 size=    6224kB time=00:00:08.12 bitrate=6278.3kbits/s speed=0.0582x    frame=  480 fps=3.4 q=45.0 size=    6224kB time=00:00:08.14 bitrate=6262.9kbits/s speed=0.0581x    frame=  483 fps=3.4 q=45.0 size=    6224kB time=00:00:08.20 bitrate=6217.0kbits/s speed=0.0584x    frame=  485 fps=3.4 q=45.0 size=    6224kB time=00:00:08.24 bitrate=6186.9kbits/s speed=0.0583x    frame=  486 fps=3.4 q=45.0 size=    6224kB time=00:00:08.26 bitrate=6171.9kbits/s speed=0.0582x    frame=  490 fps=3.4 q=45.0 size=    6224kB time=00:00:08.34 bitrate=6112.7kbits/s speed=0.0584x    frame=  492 fps=3.4 q=45.0 size=    6224kB time=00:00:08.38 bitrate=6083.5kbits/s speed=0.0582x    frame=  494 fps=3.4 q=45.0 size=    6224kB time=00:00:08.42 bitrate=6054.6kbits/s speed=0.0582x    frame=  498 fps=3.4 q=45.0 size=    6224kB time=00:00:08.50 bitrate=5997.6kbits/s speed=0.0585x    frame=  499 fps=3.4 q=45.0 size=    6224kB time=00:00:08.52 bitrate=5983.6kbits/s speed=0.0584x    frame=  500 fps=3.4 q=45.0 size=    6224kB time=00:00:08.54 bitrate=5969.6kbits/s speed=0.0582x    frame=  500 fps=3.0 q=-1.0 Lsize=   12202kB time=00:00:09.94 bitrate=10054.9kbits/s speed=0.059x    
video:12197kB audio:0kB subtitle:0kB other streams:0kB global headers:0kB muxing overhead: 0.036846%
bench: utime=632.876s
bench: maxrss=2537372kB
[libx264 @ 0x31791c0] frame I:2     Avg QP:35.26  size:357360
[libx264 @ 0x31791c0] frame P:134   Avg QP:44.58  size: 47335
[libx264 @ 0x31791c0] frame B:364   Avg QP:47.50  size: 14922
[libx264 @ 0x31791c0] consecutive B-frames:  0.4%  2.8% 14.4% 82.4%
[libx264 @ 0x31791c0] mb I  I16..4: 22.1% 71.8%  6.1%
[libx264 @ 0x31791c0] mb P  I16..4:  2.2%  3.7%  0.0%  P16..4: 35.0%  2.9%  4.9%  0.0%  0.0%    skip:51.3%
[libx264 @ 0x31791c0] mb B  I16..4:  0.0%  0.1%  0.0%  B16..8: 39.7%  1.0%  0.1%  direct: 0.2%  skip:59.0%  L0:42.1% L1:57.6% BI: 0.3%
[libx264 @ 0x31791c0] final ratefactor: 37.33
[libx264 @ 0x31791c0] 8x8 transform intra:64.5% inter:89.5%
[libx264 @ 0x31791c0] direct mvs  spatial:99.2% temporal:0.8%
[libx264 @ 0x31791c0] coded y,uvDC,uvAC intra: 27.7% 45.9% 14.4% inter: 2.0% 4.3% 0.1%
[libx264 @ 0x31791c0] i16 v,h,dc,p: 36% 22%  6% 35%
[libx264 @ 0x31791c0] i8 v,h,dc,ddl,ddr,vr,hd,vl,hu:  8%  4%  9% 12% 15% 15% 14% 12% 11%
[libx264 @ 0x31791c0] i4 v,h,dc,ddl,ddr,vr,hd,vl,hu:  6%  4%  1% 13% 17% 16% 16% 13% 15%
[libx264 @ 0x31791c0] i8c dc,h,v,p: 55% 17% 16% 13%
[libx264 @ 0x31791c0] Weighted P-Frames: Y:0.7% UV:0.0%
[libx264 @ 0x31791c0] ref P L0: 63.5%  4.4% 15.1%  4.3%  3.9%  3.3%  3.4%  2.1%  0.0%
[libx264 @ 0x31791c0] ref B L0: 95.0%  2.9%  1.1%  0.4%  0.3%  0.2%  0.2%
[libx264 @ 0x31791c0] ref B L1: 98.9%  1.1%
[libx264 @ 0x31791c0] kb/s:9991.30
